#!OML:ASF G:\JayActor3\Patient Classification 1\Patient 1\Session 5\male.ASF
:FULLY-SPECIFIED
:DEGREES
672
root 18.3317 16.551 -4.45373 604.94 83.2994 607.43
lowerback 1.27345 -0.868745 6.62252
upperback 2.36941 -1.117 0.555752
thorax 1.61626 -0.435259 -3.13735
lowerneck -9.03501 -0.124631 1.79164
upperneck 15.3686 -0.622819 2.00849
head 6.15091 0.0203218 0.298392
rclavicle 4.14963e-015 6.75868e-015
rhumerus -30.8164 -0.973251 -87.8188
rradius 33.3264
rwrist -1.46559
rhand -19.6006 -9.81034
rfingers 7.12502
rthumb 6.72541 -39.6835
lclavicle 4.14963e-015 6.75868e-015
lhumerus -29.9249 4.31058 85.0811
lradius 31.1207
lwrist 18.9604
lhand -17.1595 11.8777
lfingers 7.12502
lthumb 9.08148 41.6622
rfemur 1.48681 3.50316 34.203
rtibia 26.9745
rfoot -24.0252 -14.9635
rtoes 7.56846
lfemur -25.8472 2.52104 -14.9743
ltibia 40.998
lfoot -15.431 11.5231
ltoes -15.0934
673
root 18.4347 16.5478 -4.45521 604.903 83.2255 607.371
lowerback 1.27955 -0.863264 6.67125
upperback 2.38441 -1.10925 0.57409
thorax 1.62885 -0.429662 -3.14569
lowerneck -9.04746 -0.127951 1.79195
upperneck 15.3213 -0.631843 2.03307
head 6.13823 0.0167769 0.305279
rclavicle -6.95746e-016 1.31198e-014
rhumerus -30.7666 -1.01611 -87.819
rradius 33.2397
rwrist -1.40228
rhand -19.6269 -9.7779
rfingers 7.12502
rthumb 6.69998 -39.6519
lclavicle -6.95746e-016 1.31198e-014
lhumerus -29.8062 4.52152 85.0415
lradius 31.0125
lwrist 18.9376
lhand -17.2057 11.8676
lfingers 7.12502
lthumb 9.03685 41.654
rfemur 2.10452 3.46563 34.3222
rtibia 26.491
rfoot -24.0083 -15.0377
rtoes 7.39677
lfemur -26.0407 2.79735 -15.1583
ltibia 39.3741
lfoot -15.2195 11.452
ltoes -15.1053
674
root 18.5377 16.5434 -4.45717 604.938 83.1493 607.385
lowerback 1.28557 -0.856861 6.72499
upperback 2.40339 -1.10035 0.593171
thorax 1.6457 -0.423128 -3.15609
lowerneck -9.06024 -0.130423 1.79434
upperneck 15.2638 -0.640022 2.05743
head 6.12241 0.0134766 0.311787
rclavicle 4.79568e-015 8.74653e-015
rhumerus -30.7183 -1.05731 -87.8231
rradius 33.1522
rwrist -1.32643
rhand -19.6371 -9.74227
rfingers 7.12502
rthumb 6.69012 -39.6166
lclavicle 4.79568e-015 8.74653e-015
lhumerus -29.6821 4.72443 85.0011
lradius 30.8695
lwrist 18.9085
lhand -17.2633 11.8259
lfingers 7.12502
lthumb 8.98132 41.6147
rfemur 2.71627 3.40258 34.4403
rtibia 26.0194
rfoot -23.9911 -15.1003
rtoes 7.19597
lfemur -26.1915 3.0963 -15.3495
ltibia 37.7285
lfoot -14.9967 11.4145
ltoes -15.1363
675
root 18.641 16.5384 -4.45969 605.024 83.0769 607.452
lowerback 1.29122 -0.850014 6.77929
upperback 2.4262 -1.091 0.610269
thorax 1.66674 -0.416077 -3.16888
lowerneck -9.07281 -0.131513 1.79671
upperneck 15.1962 -0.646273 2.08153
head 6.10336 0.0108154 0.318333
rclavicle -1.2598e-014 2.10712e-014
rhumerus -30.673 -1.09322 -87.833
rradius 33.0667
rwrist -1.23737
rhand -19.6384 -9.70116
rfingers 7.12502
rthumb 6.68892 -39.5755
lclavicle -1.2598e-014 2.10712e-014
lhumerus -29.551 4.91995 84.9575
lradius 30.6877
lwrist 18.8607
lhand -17.3167 11.781
lfingers 7.12502
lthumb 8.92979 41.5721
rfemur 3.32286 3.30976 34.5474
rtibia 25.5601
rfoot -23.9742 -15.1427
rtoes 6.99188
lfemur -26.3007 3.41022 -15.5513
ltibia 36.0685
lfoot -14.7802 11.4165
ltoes -15.1894
676
root 18.7447 16.533 -4.46277 605.152 83.009 607.56
lowerback 1.29428 -0.842274 6.83201
upperback 2.45185 -1.08077 0.625735
thorax 1.69229 -0.408362 -3.18253
lowerneck -9.08319 -0.132304 1.80171
upperneck 15.12 -0.651888 2.10224
head 6.08121 0.00811566 0.323396
rclavicle 6.01324e-015 -7.95139e-016
rhumerus -30.6292 -1.11775 -87.8492
rradius 32.9814
rwrist -1.15156
rhand -19.6322 -9.6617
rfingers 7.12502
rthumb 6.6949 -39.5359
lclavicle 6.01324e-015 -7.95139e-016
lhumerus -29.4165 5.10022 84.9146
lradius 30.4721
lwrist 18.7981
lhand -17.3547 11.7346
lfingers 7.12502
lthumb 8.89312 41.5272
rfemur 3.92346 3.18134 34.6407
rtibia 25.1095
rfoot -23.9519 -15.1603
rtoes 6.80411
lfemur -26.3724 3.73156 -15.7607
ltibia 34.4021
lfoot -14.5762 11.4526
ltoes -15.2678
677
root 18.8489 16.5274 -4.46641 605.3 82.95 607.688
lowerback 1.29143 -0.834127 6.87626
upperback 2.47692 -1.07056 0.63854
thorax 1.72063 -0.40073 -3.19427
lowerneck -9.09088 -0.132063 1.80525
upperneck 15.0431 -0.65585 2.12384
head 6.05836 0.00617278 0.329106
rclavicle -1.09083e-014 -1.27222e-014
rhumerus -30.5923 -1.12829 -87.8718
rradius 32.8934
rwrist -1.06093
rhand -19.6315 -9.61394
rfingers 7.12502
rthumb 6.69557 -39.4881
lclavicle -1.09083e-014 -1.27222e-014
lhumerus -29.282 5.27169 84.8708
lradius 30.2192
lwrist 18.7146
lhand -17.377 11.6925
lfingers 7.12502
lthumb 8.87151 41.486
rfemur 4.51627 3.01544 34.713
rtibia 24.6665
rfoot -23.9074 -15.152
rtoes 6.57985
lfemur -26.4111 4.05689 -15.979
ltibia 32.7354
lfoot -14.3973 11.5027
ltoes -15.3481
678
root 18.9539 16.5217 -4.47078 605.477 82.9024 607.838
lowerback 1.28284 -0.825267 6.91297
upperback 2.50021 -1.05993 0.647591
thorax 1.75046 -0.393024 -3.20574
lowerneck -9.10046 -0.130573 1.80431
upperneck 14.9704 -0.657844 2.14784
head 6.0372 0.00521456 0.33648
rclavicle -1.39149e-015 -1.23246e-014
rhumerus -30.5631 -1.1234 -87.9014
rradius 32.8055
rwrist -0.977726
rhand -19.6419 -9.55639
rfingers 7.12502
rthumb 6.68552 -39.4308
lclavicle -1.39149e-015 -1.23246e-014
lhumerus -29.1486 5.43222 84.8261
lradius 29.9328
lwrist 18.6162
lhand -17.3788 11.6527
lfingers 7.12502
lthumb 8.86983 41.4463
rfemur 5.10076 2.81114 34.7594
rtibia 24.2302
rfoot -23.8401 -15.1117
rtoes 6.32741
lfemur -26.4218 4.38062 -16.205
ltibia 31.0783
lfoot -14.249 11.5479
ltoes -15.4181
679
root 19.0599 16.5158 -4.47588 605.71 82.8622 608.039
lowerback 1.26507 -0.815781 6.94576
upperback 2.51825 -1.04919 0.6551
thorax 1.78006 -0.385519 -3.2167
lowerneck -9.10411 -0.126883 1.80308
upperneck 14.9037 -0.656101 2.16926
head 6.01691 0.00599398 0.343392
rclavicle 1.21756e-015 7.15625e-015
rhumerus -30.5444 -1.10337 -87.9362
rradius 32.7112
rwrist -0.893265
rhand -19.6626 -9.48408
rfingers 7.12502
rthumb 6.66549 -39.3592
lclavicle 1.21756e-015 7.15625e-015
lhumerus -29.0265 5.58457 84.78
lradius 29.6156
lwrist 18.5009
lhand -17.39 11.6208
lfingers 7.12502
lthumb 8.85905 41.4148
rfemur 5.67639 2.57886 34.7863
rtibia 23.8011
rfoot -23.7544 -15.0403
rtoes 6.04214
lfemur -26.4082 4.6997 -16.4292
ltibia 29.4406
lfoot -14.1274 11.5721
ltoes -15.5188
680
root 19.1668 16.51 -4.48186 606.022 82.8234 608.308
lowerback 1.23676 -0.806099 6.98371
upperback 2.52978 -1.03898 0.662323
thorax 1.80873 -0.378426 -3.23095
lowerneck -9.10731 -0.120457 1.80204
upperneck 14.8458 -0.650081 2.18715
head 5.99926 0.0087892 0.349513
rclavicle 1.15047e-014 1.59028e-015
rhumerus -30.5366 -1.07026 -87.9769
rradius 32.6123
rwrist -0.809873
rhand -19.6874 -9.40687
rfingers 7.12502
rthumb 6.64159 -39.2827
lclavicle 1.15047e-014 1.59028e-015
lhumerus -28.915 5.7296 84.7316
lradius 29.2727
lwrist 18.37
lhand -17.3965 11.5955
lfingers 7.12502
lthumb 8.85274 41.3898
rfemur 6.24057 2.3286 34.8017
rtibia 23.3781
rfoot -23.6493 -14.9502
rtoes 5.70563
lfemur -26.381 5.00635 -16.6421
ltibia 27.8345
lfoot -14.0318 11.5631
ltoes -15.6167
681
root 19.2749 16.5041 -4.48861 606.428 82.7878 608.661
lowerback 1.19544 -0.794283 7.02551
upperback 2.53282 -1.02691 0.668437
thorax 1.83608 -0.370662 -3.2486
lowerneck -9.10498 -0.113086 1.79937
upperneck 14.7978 -0.642094 2.20394
head 5.98382 0.0126109 0.355735
rclavicle -1.28216e-014 1.11319e-014
rhumerus -30.5432 -1.03655 -88.0192
rradius 32.5055
rwrist -0.700454
rhand -19.7144 -9.3202
rfingers 7.12502
rthumb 6.61555 -39.1969
lclavicle -1.28216e-014 1.11319e-014
lhumerus -28.8181 5.8658 84.6795
lradius 28.9063
lwrist 18.2213
lhand -17.4196 11.5863
lfingers 7.12502
lthumb 8.83044 41.3815
rfemur 6.79622 2.08694 34.8106
rtibia 22.9585
rfoot -23.5369 -14.8465
rtoes 5.35583
lfemur -26.3423 5.29464 -16.8407
ltibia 26.2725
lfoot -13.9519 11.515
ltoes -15.7543
682
root 19.3844 16.4984 -4.49618 606.956 82.7521 609.121
lowerback 1.13845 -0.778707 7.07868
upperback 2.52735 -1.01105 0.672892
thorax 1.86372 -0.361065 -3.27448
lowerneck -9.09675 -0.104829 1.80343
upperneck 14.7578 -0.632389 2.21246
head 5.96979 0.017193 0.358393
rclavicle 6.73383e-015 -7.95139e-016
rhumerus -30.5635 -1.00705 -88.0641
rradius 32.3903
rwrist -0.575148
rhand -19.727 -9.24446
rfingers 7.12502
rthumb 6.60335 -39.1215
lclavicle 6.73383e-015 -7.95139e-016
lhumerus -28.7372 5.98826 84.6238
lradius 28.5227
lwrist 18.0557
lhand -17.4371 11.5855
lfingers 7.12502
lthumb 8.81354 41.3814
rfemur 7.34615 1.86893 34.8196
rtibia 22.5361
rfoot -23.4112 -14.7387
rtoes 4.99081
lfemur -26.2979 5.55639 -17.0161
ltibia 24.77
lfoot -13.8858 11.4164
ltoes -15.8807
683
root 19.4954 16.4931 -4.50453 607.615 82.7157 609.699
lowerback 1.06121 -0.759421 7.14262
upperback 2.51651 -0.992008 0.676481
thorax 1.89744 -0.34966 -3.30749
lowerneck -9.09095 -0.0957651 1.80522
upperneck 14.7305 -0.621472 2.22179
head 5.9602 0.0226194 0.361809
rclavicle -1.38404e-014 -1.51076e-014
rhumerus -30.5881 -0.982281 -88.1095
rradius 32.2582
rwrist -0.412165
rhand -19.7344 -9.16569
rfingers 7.12502
rthumb 6.59618 -39.043
lclavicle -1.38404e-014 -1.51076e-014
lhumerus -28.6664 6.10582 84.5624
lradius 28.1188
lwrist 17.8682
lhand -17.4505 11.5986
lfingers 7.12502
lthumb 8.80067 41.3951
rfemur 7.89423 1.6903 34.8326
rtibia 22.1066
rfoot -23.2703 -14.634
rtoes 4.61454
lfemur -26.2513 5.78036 -17.1604
ltibia 23.3419
lfoot -13.8341 11.2629
ltoes -15.9341
684
root 19.6081 16.4883 -4.51375 608.403 82.6837 610.398
lowerback 0.966155 -0.735696 7.21297
upperback 2.50118 -0.968686 0.677273
thorax 1.93696 -0.335945 -3.34714
lowerneck -9.08534 -0.0868975 1.80841
upperneck 14.715 -0.610737 2.22909
head 5.95436 0.0281755 0.364376
rclavicle -5.1684e-015 -4.37326e-015
rhumerus -30.6135 -0.967562 -88.1541
rradius 32.1069
rwrist -0.222942
rhand -19.7166 -9.1078
rfingers 7.12502
rthumb 6.61344 -38.9845
lclavicle -5.1684e-015 -4.37326e-015
lhumerus -28.6108 6.21641 84.4948
lradius 27.7013
lwrist 17.6627
lhand -17.4652 11.605
lfingers 7.12502
lthumb 8.78644 41.4021
rfemur 8.448 1.54934 34.842
rtibia 21.6641
rfoot -23.1107 -14.5193
rtoes 4.24086
lfemur -26.2037 5.95978 -17.2734
ltibia 22.0096
lfoot -13.793 11.0555
ltoes -15.917
